<?xml version="1.0" encoding="UTF-8" standalone="no"?>
<!-- Created with Inkscape (http://www.inkscape.org/) -->

<svg
   xmlns:dc="http://purl.org/dc/elements/1.1/"
   xmlns:cc="http://creativecommons.org/ns#"
   xmlns:rdf="http://www.w3.org/1999/02/22-rdf-syntax-ns#"
   xmlns:svg="http://www.w3.org/2000/svg"
   xmlns="http://www.w3.org/2000/svg"
   xmlns:sodipodi="http://sodipodi.sourceforge.net/DTD/sodipodi-0.dtd"
   xmlns:inkscape="http://www.inkscape.org/namespaces/inkscape"
   width="190"
   height="70"
   viewBox="0 0 190 70"
   id="svg2"
   version="1.1"
   inkscape:version="0.91 r13725"
   sodipodi:docname="logo_kerned.svg">
  <defs
     id="defs4" />
  <sodipodi:namedview
     id="base"
     pagecolor="#ffffff"
     bordercolor="#666666"
     borderopacity="1.0"
     inkscape:pageopacity="0.0"
     inkscape:pageshadow="2"
     inkscape:zoom="2.8"
     inkscape:cx="91.785714"
     inkscape:cy="46.917058"
     inkscape:document-units="px"
     inkscape:current-layer="flowRoot3341"
     showgrid="false"
     units="px"
     inkscape:window-width="1427"
     inkscape:window-height="903"
     inkscape:window-x="297"
     inkscape:window-y="432"
     inkscape:window-maximized="0"
     fit-margin-top="0"
     fit-margin-left="0"
     fit-margin-right="0"
     fit-margin-bottom="0" />
  <metadata
     id="metadata7">
    <rdf:RDF>
      <cc:Work
         rdf:about="">
        <dc:format>image/svg+xml</dc:format>
        <dc:type
           rdf:resource="http://purl.org/dc/dcmitype/StillImage" />
        <dc:title></dc:title>
      </cc:Work>
    </rdf:RDF>
  </metadata>
  <g
     inkscape:label="Layer 1"
     inkscape:groupmode="layer"
     id="layer1"
     transform="translate(-10.165715,-687.21988)">
    <g
       transform="matrix(2.3140525,0,0,2.3140525,-26.581439,617.03061)"
       style="font-style:normal;font-variant:normal;font-weight:normal;font-stretch:normal;font-size:40px;line-height:125%;font-family:'Josefin Sans';-inkscape-font-specification:'Josefin Sans';letter-spacing:-0.00432142px;word-spacing:0.00432142px;fill:#000000;fill-opacity:1;stroke:none;stroke-width:1px;stroke-linecap:butt;stroke-linejoin:miter;stroke-opacity:1"
       id="flowRoot3336">
      <g
         transform="translate(-0.1546008,5.0985121)"
         style="font-style:normal;font-variant:normal;font-weight:normal;font-stretch:normal;font-size:17.28569221px;line-height:125%;font-family:Amaranth;-inkscape-font-specification:Amaranth;letter-spacing:0px;word-spacing:0px;fill:#000000;fill-opacity:1;stroke:none;stroke-width:1px;stroke-linecap:butt;stroke-linejoin:miter;stroke-opacity:1"
         id="flowRoot3341">
        <path
           inkscape:connector-curvature="0"
           d="m 28.791443,29.044712 c -0.5445,-0.596357 -1.374213,-1.088999 -2.722497,-1.088999 -2.437283,0 -4.61528,1.42607 -4.61528,4.226352 0,0.466714 0.05186,1.06307 0.1815,1.581641 l -2.255783,0 0,2.100212 2.333569,0 0,10.449201 c 0,1.088999 -0.103715,2.852139 -2.696569,4.174495 l 1.192713,1.970569 c 2.074283,-1.06307 4.459709,-2.30764 4.459709,-6.430278 l 0,-10.163987 2.696568,0 0.363,-2.100212 -3.215139,0 c -0.155571,-0.596357 -0.207428,-1.06307 -0.207428,-1.451998 0,-1.814998 1.322355,-2.074283 1.970568,-2.074283 0.466714,0 1.140856,0.388928 1.24457,0.492642 l 1.270499,-1.685355 z"
           style="font-size:25.92853928px"
           id="path4151" />
        <path
           inkscape:connector-curvature="0"
           d="m 32.868273,46.779833 c 1.659427,0 2.722497,-0.466714 2.722497,-0.466714 l -0.363,-1.866855 c 0,0 -0.674142,0.207428 -1.374212,0.207428 -0.596357,0 -0.907499,-0.285214 -0.907499,-1.06307 l 0,-15.738623 -2.955854,0.544499 0,15.479338 c 0,1.685355 0.933428,2.903997 2.878068,2.903997 z"
           style="font-size:25.92853928px"
           id="path4153" />
        <path
           inkscape:connector-curvature="0"
           d="m 44.562477,40.090269 c 0,2.748426 -1.607569,4.563423 -3.137353,4.563423 -1.24457,0 -1.711284,-0.907498 -1.711284,-2.333568 l 0,-8.556418 -2.955853,0 0,8.608275 c 0,2.748425 1.06307,4.459709 3.785566,4.459709 1.840927,0 3.681853,-0.803785 4.61528,-2.826211 0.233357,1.892783 1.296427,2.878068 1.296427,2.878068 l 2.30764,-0.933428 c 0,0 -1.24457,-1.426069 -1.24457,-5.522779 l 0,-6.663634 -2.955853,0 0,6.326563 z"
           style="font-size:25.92853928px"
           id="path4155" />
        <path
           inkscape:connector-curvature="0"
           d="m 52.880947,46.676118 1.94464,-3.318853 1.011213,-1.918711 1.011214,1.892783 1.918711,3.344781 3.370711,0 -4.200424,-6.819205 c 0.725999,-0.803785 1.555713,-1.866855 2.12614,-2.903997 1.037142,-1.918712 1.400142,-3.215139 1.400142,-3.18921 l -3.059568,0 c 0,-0.02593 -0.337071,1.192713 -1.166784,2.722497 -0.311143,0.570427 -0.725999,1.218641 -1.140856,1.840926 -0.337071,-0.725999 -0.725999,-1.555713 -0.933428,-1.892784 l -1.633498,-2.670639 -3.422567,0 3.785567,6.067278 -4.330066,6.845134 3.318853,0 z"
           style="font-size:25.92853928px"
           id="path4157" />
        <path
           inkscape:connector-curvature="0"
           style="font-size:25.92853928px"
           d="m 66.557442,46.779833 c 1.218641,0 1.840926,-0.363 1.840926,-0.363 l -0.311143,-1.866855 c 0,0 -0.414856,0.05186 -0.674142,0.05186 -0.492642,0 -0.725999,-0.233357 -0.725999,-1.011213 l 0,-9.826916 -2.955853,0 0,10.086202 c 0,1.711283 1.011213,2.929925 2.826211,2.929925 z"
           id="path4159" />
        <path
           style="font-size:25.92853928px;fill:#cf313b;fill-opacity:1;stroke:none;stroke-opacity:1"
           d="m 56.012952,28.00757 c -1.192713,0 -1.814998,0.777856 -1.814998,1.840926 0,0.959356 0.622285,1.737213 1.737212,1.737213 1.166784,0 1.789069,-0.777857 1.789069,-1.814998 0,-1.037142 -0.622285,-1.763141 -1.711283,-1.763141 z"
           id="path4161"
           inkscape:connector-curvature="0" />
        <path
           inkscape:connector-curvature="0"
           d="m 75.178139,33.452563 c -3.967067,0 -5.911707,2.981782 -5.911707,6.896992 0,4.096709 1.711283,6.585849 5.67835,6.585849 3.967066,0 5.911707,-2.981782 5.911707,-6.871063 0,-4.122638 -1.711284,-6.611778 -5.67835,-6.611778 z m -0.259286,2.177998 c 2.229855,0 2.748426,2.100211 2.748426,4.693065 0,2.48914 -0.466714,4.433781 -2.463212,4.433781 -2.229854,0 -2.748425,-2.100212 -2.748425,-4.667138 0,-2.515068 0.466714,-4.459708 2.463211,-4.459708 z"
           style="font-size:25.92853928px"
           id="path4163" />
        <path
           inkscape:connector-curvature="0"
           d="m 93.827132,46.676118 0,-8.660132 c 0,-2.722496 -1.114927,-4.459708 -3.785567,-4.459708 -1.866855,0 -3.707781,0.855641 -4.61528,2.929925 -0.285214,-1.840927 -1.270498,-2.800283 -1.270498,-2.800283 l -2.333569,0.933428 c 0,0 1.270499,1.400141 1.270499,5.522779 l 0,6.533991 2.955853,0 0,-6.404349 c 0,-2.722496 1.581641,-4.381923 3.137353,-4.381923 1.24457,0 1.711284,0.959356 1.711284,2.411354 l 0,8.374918 2.929925,0 z"
           style="font-size:25.92853928px"
           id="path4165" />
      </g>
    </g>
  </g>
</svg>
